<?xml version="1.0" encoding="iso-8859-1"?>
<!-- Uploaded to: SVG Repo, www.svgrepo.com, Generator: SVG Repo Mixer Tools -->
<svg fill="#000000" height="800px" width="800px" version="1.1" id="Layer_1" xmlns="http://www.w3.org/2000/svg" xmlns:xlink="http://www.w3.org/1999/xlink" 
	 viewBox="0 0 512.032 512.032" xml:space="preserve">
<g transform="translate(-1)">
	<g>
		<g>
			<path d="M150.363,181.349c0-11.776-9.557-21.333-21.333-21.333s-21.333,9.557-21.333,21.333s9.557,21.333,21.333,21.333
				S150.363,193.125,150.363,181.349z"/>
			<path d="M449.03,330.683h-64v-21.333h48.194l3.343-0.264c46.926-7.446,76.465-71.1,76.465-149.07s-29.539-141.624-76.465-149.07
				l-3.343-0.264H22.366c-22.458,0-29.669,30.233-9.629,40.37c3.134,1.585,8.841,4.635,16.247,8.875
				c11.63,6.658,23.242,13.899,34.106,21.458c-12.438,24.55-19.382,56.01-19.382,89.289c0,75.021,34.71,138.659,85.325,138.667
				v0.009H257.03v128c0,35.355,28.645,64,64,64c27.872,0,51.562-17.808,60.346-42.667h67.654c35.355,0,64-28.645,64-64
				S484.386,330.683,449.03,330.683z M431.179,53.349c17.063,4.218,34.218,38.035,38.283,85.333H270.215l-15.437-30.874
				c-3.614-7.227-11.001-11.793-19.081-11.793h-42.665h-0.002h-6.845c-0.069-0.001-0.137-0.009-0.206-0.009h-44.695
				c-1.223-1.779-2.539-3.555-3.926-5.33c-0.005-0.006-0.01-0.012-0.015-0.019c-0.61-0.78-1.235-1.559-1.876-2.338
				c-0.211-0.258-0.426-0.515-0.64-0.772c-0.389-0.466-0.783-0.931-1.183-1.397c-0.438-0.512-0.881-1.023-1.332-1.535
				c-0.078-0.088-0.158-0.177-0.236-0.265c-9.155-10.337-20.914-20.646-34.87-31.003H431.179z M86.374,170.674
				c0-22.844,3.997-44.207,10.787-61.198c2.986,3.097,5.54,6.063,7.631,8.865c0.488,0.659,0.958,1.312,1.4,1.958
				c0.24,0.351,0.459,0.692,0.682,1.035c0.148,0.226,0.298,0.453,0.439,0.677c0.241,0.383,0.467,0.759,0.686,1.131
				c0.105,0.178,0.207,0.355,0.307,0.532c0.219,0.385,0.433,0.768,0.628,1.14c0.054,0.102,0.1,0.202,0.152,0.303
				c0.199,0.388,0.392,0.774,0.564,1.148c3.482,7.568,11.05,12.417,19.38,12.417h39.932c1.758,9.978,2.69,20.465,2.734,31.198v1.723
				c-0.18,37.783-11.302,71.168-27.133,87.05c-1.959,1.797-3.255,2.91-4.256,3.6c-0.38,0.268-0.363,0.257-0.988,0.66
				c-2.162,1.392-4.022,2.335-5.545,2.868l-0.306,0.075c-1.719,0.563-3.199,0.817-4.431,0.817
				C108.96,266.674,86.374,225.268,86.374,170.674z M214.366,181.349v-9.774c0.001-0.301,0.009-0.6,0.009-0.901
				c0-0.348-0.007-0.694-0.009-1.042v-30.95h8.146l15.437,30.874c3.614,7.227,11.001,11.793,19.081,11.793h212.432
				c-4.065,47.298-21.22,81.116-38.283,85.333h-67.482h-85.333h-85.761C206.142,243.998,214.366,214.06,214.366,181.349z
				 M321.03,458.683c-11.791,0-21.333-9.542-21.333-21.333v-128h42.667v42.667v85.333
				C342.364,449.141,332.821,458.683,321.03,458.683z M449.03,416.016h-64V373.35h64c11.791,0,21.333,9.542,21.333,21.333
				S460.821,416.016,449.03,416.016z"/>
		</g>
	</g>
</g>
</svg>