<svg xmlns="http://www.w3.org/2000/svg" viewBox="0 0 194 53.24"><g id="Layer_2" data-name="Layer 2"><g id="Layer_1-2" data-name="Layer 1"><path d="M105.68,18.68a1.22,1.22,0,0,1-1.46-.25,4.25,4.25,0,0,1-1.07-2.07,11.72,11.72,0,0,1,.24-5.78,6,6,0,0,1,1.09-2.08,2.58,2.58,0,0,1,1.44-.88A2.89,2.89,0,0,1,108.8,9a10.48,10.48,0,0,1,1.84,4.69,25.06,25.06,0,0,1,.22,5.94,21.77,21.77,0,0,1-1.16,5.5A11,11,0,0,1,107.41,29c-.22.22-.46.4-.69.6A6,6,0,0,1,106,30l-.73.3a6.52,6.52,0,0,1-.74.16,4.92,4.92,0,0,1-3-.56c-1.92-1-3.67-3.37-4.89-6.54a28.77,28.77,0,0,1-1.39-5.27l-.22-1.42c-.07-.5-.11-1-.15-1.5-.07-1-.1-2-.09-3A39.46,39.46,0,0,1,96.57.92L96.86,0l.33.84c.32.83.58,1.65.83,2.52s.46,1.77.64,2.7a34.2,34.2,0,0,1,.67,5.84,28.27,28.27,0,0,1-.46,5.94,29.82,29.82,0,0,1-1.4,5.27c-1.21,3.16-2.91,5.63-4.84,6.71A4.73,4.73,0,0,1,86.76,29a10.8,10.8,0,0,1-2.31-3.84,21.76,21.76,0,0,1-1.18-5.5,25.15,25.15,0,0,1,.2-6A10.61,10.61,0,0,1,85.3,9a2.92,2.92,0,0,1,2.89-1.38,2.54,2.54,0,0,1,1.44.86,5.74,5.74,0,0,1,1.09,2.08A11.73,11.73,0,0,1,91,16.34a4.28,4.28,0,0,1-1.07,2.09,1.24,1.24,0,0,1-1.47.25s-.06-.1,0-.18,0-.12.09-.11a1.17,1.17,0,0,0,1.35-.32,4.05,4.05,0,0,0,.93-1.93,10.6,10.6,0,0,0-.3-5.24,4.93,4.93,0,0,0-1-1.81,2.12,2.12,0,0,0-1.31-.71,2.74,2.74,0,0,0-2.6,1.37A9.86,9.86,0,0,0,84,14a22.53,22.53,0,0,0-.15,5.45,20.08,20.08,0,0,0,1.11,5A9.86,9.86,0,0,0,87,27.89c.21.18.42.36.63.51a4.73,4.73,0,0,0,.66.36L89,29l.69.12a4.56,4.56,0,0,0,2.74-.63c1.78-1,3.35-3.31,4.46-6.25a27.71,27.71,0,0,0,1.29-4.89,25.27,25.27,0,0,0,.4-5.39,32.4,32.4,0,0,0-2-10.15l.62-.07A36.13,36.13,0,0,0,95.55,12.2c0,.92,0,1.85.07,2.75,0,.45.08.9.14,1.32l.2,1.34a26.35,26.35,0,0,0,1.27,4.88c1.12,2.93,2.72,5.1,4.5,6.08a4.56,4.56,0,0,0,2.74.55,5.25,5.25,0,0,0,.69-.13l.69-.25a7.16,7.16,0,0,0,.65-.37,6.21,6.21,0,0,0,.63-.52,9.57,9.57,0,0,0,2.1-3.44,19.74,19.74,0,0,0,1.1-5,23.06,23.06,0,0,0-.16-5.45,9.8,9.8,0,0,0-1.61-4.24A2.75,2.75,0,0,0,106,8.38a2.22,2.22,0,0,0-1.31.72,5,5,0,0,0-1,1.82,10.56,10.56,0,0,0-.29,5.23,4.1,4.1,0,0,0,.93,1.93,1.17,1.17,0,0,0,1.34.31s.09,0,.09.11S105.72,18.66,105.68,18.68Z"/><path d="M88.44,34.56a1.24,1.24,0,0,1,1.47.25A4.16,4.16,0,0,1,91,36.88a11.61,11.61,0,0,1-.24,5.78,5.74,5.74,0,0,1-1.09,2.08,2.56,2.56,0,0,1-1.43.88,2.91,2.91,0,0,1-2.89-1.35,10.6,10.6,0,0,1-1.84-4.69,24.61,24.61,0,0,1-.21-5.95,21.52,21.52,0,0,1,1.16-5.5,11.05,11.05,0,0,1,2.28-3.86c.23-.23.47-.41.7-.6s.48-.32.72-.43l.73-.29a6.69,6.69,0,0,1,.75-.16,4.83,4.83,0,0,1,3,.56c1.93,1,3.67,3.37,4.89,6.54a28.77,28.77,0,0,1,1.39,5.27l.22,1.41c.07.51.12,1,.16,1.51.07,1,.1,2,.09,3a39.52,39.52,0,0,1-1.76,11.25l-.29.92-.33-.85a22.53,22.53,0,0,1-.83-2.52c-.25-.86-.47-1.76-.65-2.69a34.21,34.21,0,0,1-.66-5.84,28.23,28.23,0,0,1,.45-5.94,30.7,30.7,0,0,1,1.4-5.27c1.22-3.17,2.91-5.63,4.85-6.71a4.73,4.73,0,0,1,5.87.81,10.79,10.79,0,0,1,2.3,3.84,20.93,20.93,0,0,1,1.18,5.5,24.13,24.13,0,0,1-.2,6,10.61,10.61,0,0,1-1.83,4.72,2.9,2.9,0,0,1-2.88,1.38,2.56,2.56,0,0,1-1.45-.86,5.9,5.9,0,0,1-1.09-2.08,11.65,11.65,0,0,1-.25-5.79,4.2,4.2,0,0,1,1.06-2.08,1.24,1.24,0,0,1,1.47-.25s.06.1,0,.18,0,.12-.09.11a1.16,1.16,0,0,0-1.34.31,4,4,0,0,0-.93,1.94,10.73,10.73,0,0,0,.29,5.24c.51,1.55,1.39,2.43,2.31,2.52a2.73,2.73,0,0,0,2.6-1.37,9.73,9.73,0,0,0,1.61-4.28,22.54,22.54,0,0,0,.14-5.45,19.13,19.13,0,0,0-1.11-5,9.62,9.62,0,0,0-2.11-3.42,7.52,7.52,0,0,0-.64-.51,3.88,3.88,0,0,0-.66-.36l-.68-.25-.69-.12a4.55,4.55,0,0,0-2.74.63c-1.79,1-3.35,3.3-4.47,6.24a28.06,28.06,0,0,0-1.28,4.9,25.89,25.89,0,0,0-.41,5.38,32.18,32.18,0,0,0,2,10.16l-.62.07A36.82,36.82,0,0,0,98.58,41c0-.92,0-1.85-.08-2.75,0-.45-.07-.9-.13-1.32l-.2-1.34a27.16,27.16,0,0,0-1.27-4.88c-1.12-2.93-2.73-5.11-4.51-6.08a4.56,4.56,0,0,0-2.74-.55c-.23,0-.46.06-.69.12l-.68.26c-.23.09-.44.25-.66.36s-.43.33-.63.53a9.71,9.71,0,0,0-2.1,3.44,19.65,19.65,0,0,0-1.09,5A23,23,0,0,0,84,39.26a9.67,9.67,0,0,0,1.62,4.25,2.73,2.73,0,0,0,2.6,1.35,2.17,2.17,0,0,0,1.3-.72,5.22,5.22,0,0,0,1-1.82,10.56,10.56,0,0,0,.28-5.23,4,4,0,0,0-.92-1.93,1.16,1.16,0,0,0-1.35-.31s-.08,0-.09-.11A.22.22,0,0,1,88.44,34.56Z"/><path d="M108.8,25.47l83.41.88c.07,0,.13.12.13.27s-.06.26-.13.27l-83.41.88c-.32,0-.57-.5-.58-1.14s.25-1.16.57-1.16Z"/><path d="M85.4,27.77,1.79,26.89c-.07,0-.13-.13-.13-.27s.06-.26.13-.27l83.61-.88c.32,0,.58.5.58,1.14s-.25,1.16-.57,1.16Z"/><ellipse cx="1.79" cy="26.62" rx="1.79" ry="3.58"/><ellipse cx="192.21" cy="26.62" rx="1.79" ry="3.58"/><ellipse cx="88.84" cy="16.74" rx="1.05" ry="2.11"/><path d="M106.46,16.65c0,1.16-.47,2.11-1,2.11s-1.06-1-1.06-2.11.47-2.11,1.06-2.11S106.46,15.48,106.46,16.65Z"/><path d="M106.46,36.55c0,1.17-.47,2.11-1,2.11s-1.06-.94-1.06-2.11.47-2.11,1.06-2.11S106.46,35.39,106.46,36.55Z"/><path d="M89.89,36.55c0,1.17-.48,2.11-1.06,2.11s-1-.94-1-2.11.47-2.11,1-2.11S89.89,35.39,89.89,36.55Z"/></g></g></svg>